<svg xmlns="http://www.w3.org/2000/svg" viewBox="0 0 16 16">
  <defs>
    <style>
      .cls-1{fill:aqua;}
      .cls-2{fill:#f0f;}
      .cls-main {
        fill: #000;
      }
      @media (prefers-color-scheme: dark) {
        .cls-main {
            fill: #fff;
        }
      }
    </style>
  </defs>
  <g id="Layer_1" data-name="Layer 1">
  <polygon class="cls-1" points="5.95 4.85 13.41 1.83 14.81 2.12 15.2 1.92 12.46 1.35 5.04 4.36 5.95 4.85"/>
  <polygon class="cls-1" points="7.86 14.21 7.9 9.24 1.5 4.83 0.53 2 -0.44 1.48 0.54 4.36 6.95 8.77 6.89 15.23 7.86 14.21"/>
  <polygon class="cls-2" points="9.57 13.89 9.57 13.89 9.56 15.22 10.28 14.46 11.18 6.39 10.37 6.82 9.57 13.89"/>
  <polygon class="cls-main" fill-rule="evenodd" clip-rule="evenodd" points="14.72 2.11 7.37 5.19 8.09 5.63 7.61 6.39 0.56 2.12 1.49 4.84 7.61 9.05 7.72 6.49 8.72 6.54 8.32 15.2 9.55 13.91 10.52 5.28 16.14 2.4 14.72 2.11"/>
  <polygon class="cls-2" points="14.65 3.13 10.41 5.29 10.3 6.21 15.86 3.37 14.66 3.12 14.65 3.13"/>
  </g>
</svg>