<svg xmlns="http://www.w3.org/2000/svg" viewBox="0 0 290 80">
  <g id="Layer_1" data-name="Layer 1">
    <g>
      <path d="M90,28.9V56.17h-5.6V28.9H75.06V24.2H99.3v4.7Z"/>
      <path d="M120.3,24.2c7.24,0,11.81,3.64,11.81,10.17a9.2,9.2,0,0,1-6.31,9l7,12.79h-6l-6.13-11.86H115V56.17h-5.5v-32ZM115,28.9V39.78h5.6c3.6,0,5.9-1.91,5.9-5.41s-2.39-5.47-6.17-5.47Z"/>
      <path d="M157.1,23.62a16.32,16.32,0,0,1,16.57,16.56,16.57,16.57,0,0,1-33.13,0A16.34,16.34,0,0,1,157.1,23.62Zm0,28c6.35,0,10.93-4.92,10.93-11.41s-4.58-11.41-10.93-11.41-11,5-11,11.41S150.75,51.59,157.1,51.59Z"/>
      <path d="M184.4,56.17v-32H190v32Z"/>
      <path d="M207.67,40.27,221.48,24.2h6.7L216.64,37.3l11.72,18.87H222L212.86,41l-5.19,5.72v9.42h-5.6v-32h5.6Z"/>
      <path d="M250.69,23.71h.18L266,56.17h-5.86l-2.84-6.35H244.25l-2.84,6.35h-5.86Zm4.8,21.93c-1.82-4.08-3.33-7.68-4.67-11.32-1.37,3.33-3,7.42-4.75,11.32Z"/>
    </g>
    <g>
      <polygon points="17.72 33.8 35.4 47.88 34.92 35.65 14.42 23.77 17.72 33.8"/>
      <polygon points="49.95 19 58.74 20.9 37.2 31.21 27.59 26.61 49.95 19"/>
      <polygon points="43.98 55.66 38.45 61.37 39.47 35.65 48.59 30.37 43.98 55.66"/>
    </g>
  </g>
</svg>
