<svg xmlns="http://www.w3.org/2000/svg" viewBox="0 0 290 80">
  <defs>
    <style>
      .cls-1 {
        isolation: isolate;
      }

      .cls-2 {
        mix-blend-mode: screen;
      }
    </style>
  </defs>
  <g class="cls-1">
    <g id="Layer_1" data-name="Layer 1">
      <g>
        <g>
          <path d="M90,28.94V56.21h-5.6V28.94H75.06v-4.7H99.3v4.7Z"/>
          <path d="M120.3,24.24c7.24,0,11.81,3.64,11.81,10.17a9.2,9.2,0,0,1-6.31,9l7,12.79h-6l-6.13-11.86H115V56.21h-5.5v-32ZM115,28.94V39.82h5.6c3.6,0,5.9-1.91,5.9-5.41s-2.39-5.47-6.17-5.47Z"/>
          <path d="M157.1,23.66a16.32,16.32,0,0,1,16.57,16.56,16.57,16.57,0,0,1-33.13,0A16.34,16.34,0,0,1,157.1,23.66Zm0,28c6.35,0,10.93-4.93,10.93-11.41s-4.58-11.41-10.93-11.41-11,5-11,11.41S150.75,51.63,157.1,51.63Z"/>
          <path d="M184.4,56.21v-32H190v32Z"/>
          <path d="M207.67,40.31l13.81-16.07h6.7l-11.54,13.1,11.72,18.87H222l-9.15-15.14-5.19,5.72v9.42h-5.6v-32h5.6Z"/>
          <path d="M250.69,23.75h.18L266,56.21h-5.86l-2.84-6.35H244.25l-2.84,6.35h-5.86Zm4.8,21.93c-1.82-4.08-3.33-7.68-4.67-11.32-1.37,3.33-3,7.42-4.75,11.32Z"/>
        </g>
        <g class="cls-2">
          <polygon points="16.88 32.85 35.88 48.14 35.6 34.03 13.04 21.69 16.88 32.85"/>
          <polygon points="50.12 18.44 59.81 20.42 36.88 31.82 26.09 26.48 50.12 18.44"/>
          <polygon points="43.77 55.71 37.8 62 38.37 34.23 48.88 28.43 43.77 55.71"/>
        </g>
      </g>
    </g>
  </g>
</svg>
