<svg xmlns="http://www.w3.org/2000/svg" viewBox="0 0 290 80">
  <defs>
    <style>
      .cls-1 {
        isolation: isolate;
      }
    </style>
    <linearGradient id="logoGrad">
      <stop offset="0%" stop-color="#00ffff" />
      <stop offset="100%" stop-color="#ff00ff" />
    </linearGradient>
  </defs>
  <g class="cls-1">
    <g id="Layer_1" data-name="Layer 1">
      <g>
        <g>
          <path d="M90,29.09V56.35h-5.6V29.09H75.06V24.38H99.3v4.71Z"/>
          <path d="M120.3,24.38c7.24,0,11.81,3.64,11.81,10.17a9.2,9.2,0,0,1-6.31,9l7,12.79h-6l-6.13-11.86H115V56.35h-5.5v-32ZM115,29.09V40h5.6c3.6,0,5.9-1.91,5.9-5.42s-2.39-5.46-6.17-5.46Z"/>
          <path d="M157.1,23.8a16.32,16.32,0,0,1,16.57,16.56,16.57,16.57,0,1,1-33.13,0A16.34,16.34,0,0,1,157.1,23.8Zm0,28c6.35,0,10.93-4.93,10.93-11.42S163.45,29,157.1,29s-11,5-11,11.41S150.75,51.78,157.1,51.78Z"/>
          <path d="M184.4,56.35v-32H190v32Z"/>
          <path d="M207.67,40.45l13.81-16.07h6.7l-11.54,13.1,11.72,18.87H222l-9.15-15.14-5.19,5.73v9.41h-5.6v-32h5.6Z"/>
          <path d="M250.69,23.89h.18L266,56.35h-5.86L257.31,50H244.25l-2.84,6.35h-5.86Zm4.8,21.94c-1.82-4.09-3.33-7.68-4.67-11.33-1.37,3.33-3,7.42-4.75,11.33Z"/>
        </g>
        <g class="cls-2">
          <polygon points="21.82 34.58 36.02 45.99 35.81 35.45 18.95 26.23 21.82 34.58"/>
          <polygon points="46.65 23.81 53.89 25.28 36.76 33.8 28.7 29.81 46.65 23.81"/>
          <polygon points="41.91 51.65 37.45 56.35 37.87 35.6 45.73 31.27 41.91 51.65"/>
        </g>
      </g>
    </g>
  </g>
</svg>
