<svg id="Layer_1" data-name="Layer 1" xmlns="http://www.w3.org/2000/svg" viewBox="0 0 100 100"><polygon points="8.19 22.86 5.06 13.69 48.43 36.82 48.55 50.65 8.19 22.86"/><path d="M5.94,14.73l42,22.39L48,49.7,8.6,22.54,5.94,14.73M4.18,12.66,7.76,23.18l41.3,28.43-.13-15.09L4.18,12.66Z"/><polygon points="41.34 27.48 87.59 8.73 94.33 10.12 50.84 32.34 41.34 27.48"/><path d="M87.64,9.25l5.19,1.07-42,21.45-8.3-4.24L87.64,9.25m-.1-1L40.14,27.43l10.7,5.47,45-23L87.54,8.21Z"/><polygon points="53.24 36.82 62.91 31.66 56.79 86.33 52.8 90.53 53.24 36.82"/><path d="M62.31,32.55l-6,53.56-3,3.16.43-52.15,8.57-4.57m1.21-1.78L52.75,36.52l-.47,55.27,5-5.23,6.25-55.79Z"/></svg>