<svg id="Layer_1" data-name="Layer 1" xmlns="http://www.w3.org/2000/svg" viewBox="0 0 300 300"><defs><style>.cls-1{fill:none;}.cls-2{fill:aqua;}.cls-3{fill:#f0f;}.cls-4{fill:#fff;}</style></defs><polygon class="cls-1" points="149.3 102.54 156.03 105.84 162.42 102.43 155.71 99.27 149.3 102.54"/><polygon class="cls-2" points="22.78 44.66 13.54 39.74 25.83 75.77 144.49 157.48 144.41 147.76 32.16 75.79 22.78 44.66"/><polygon class="cls-2" points="155.71 99.27 127.09 85.8 252.47 31.13 247.75 30.15 113.04 84.76 149.3 102.54 155.71 99.27"/><polygon class="cls-2" points="183.74 100.48 184.49 93.76 166.01 104.12 162.42 102.43 156.03 105.84 163.25 109.39 159.62 157.51 149.12 150.78 148.12 269.85 154.46 263.2 168.67 109.28 183.74 100.48"/><polygon class="cls-3" points="156.03 105.84 149.3 102.54 146.79 103.83 111.05 85.57 113.04 84.76 21.31 39.77 22.78 44.66 144.09 109.34 144.41 147.76 149.12 150.78 149.47 109.34 156.03 105.84"/><polygon class="cls-4" points="22.78 44.66 32.16 75.79 144.41 147.76 144.09 109.34 22.78 44.66"/><polygon class="cls-4" points="146.79 103.83 149.3 102.54 113.04 84.76 111.05 85.57 146.79 103.83"/><polygon class="cls-4" points="163.25 109.39 156.03 105.84 149.47 109.34 149.12 150.78 159.62 157.51 163.25 109.39"/><polygon class="cls-3" points="155.71 99.27 162.42 102.43 184.86 90.47 184.49 93.76 286.46 36.61 254.52 30.23 252.47 31.13 278.56 36.51 155.71 99.27"/><polygon class="cls-4" points="155.71 99.27 278.56 36.51 252.47 31.13 127.09 85.8 155.71 99.27"/><polygon class="cls-4" points="162.42 102.43 166.01 104.12 184.49 93.76 184.86 90.47 162.42 102.43"/><polygon class="cls-3" points="166.99 250.04 154.46 263.2 153.84 269.83 171.89 250.02 200.96 90.42 183.74 100.48 166.99 250.04"/><polygon class="cls-4" points="183.74 100.48 168.67 109.28 154.46 263.2 166.99 250.04 183.74 100.48"/></svg>