<svg id="Layer_1" data-name="Layer 1" xmlns="http://www.w3.org/2000/svg" viewBox="0 0 700 200"><path d="M269,161.85V43.36H252.57V29.54h47V43.36H283.14V161.85Z"/><path d="M367.45,161.85l-15.37-56h-6.56v56H331.35V29.54H354.5c15,0,23.66,6.05,23.66,27.64V77.73c0,14.34-3.11,22.46-12.78,25.74l16.24,58.38ZM364,56.49c0-9.67-3.11-13.13-9.67-13.13h-8.81V92.24h8.81c6.56,0,9.67-3.45,9.67-13.12Z"/><path d="M408.93,54.93c0-20.9,10.36-27.63,24.35-27.63s23.32,6.91,23.32,27.63v81.53c0,21.07-10.71,27.64-23.84,27.64-13.3,0-23.83-6.74-23.83-27.64Zm33.51-1.21c0-9.32-4.67-13.12-9.68-13.12-5.18,0-9.67,3.8-9.67,13.12v83.95c0,9.5,4.49,13.13,9.67,13.13,5,0,9.68-3.63,9.68-13.13Z"/><path d="M494.23,161.85V29.54H508.4V161.85Z"/><path d="M546.23,161.85V29.54h14.16V161.85Zm38.69,0L560.56,95.7l21.07-66.16H595.8l-20,65.64,23.32,66.67Z"/><path d="M665.87,161.85l-3.63-31.09H643.07l-3.63,31.09H625.28L643.07,29.54h19l18,132.31ZM652.57,49.06l-7.78,68.4h15.72Z"/><polygon points="24.14 44.75 112.6 105.67 112.3 69.78 14.98 17.89 24.14 44.75"/><polygon points="189.58 10.74 212.55 15.48 114.31 65.67 87.67 52.05 189.58 10.74"/><polygon points="129.37 174.67 115.31 189.44 116.31 69.78 142.7 55.71 129.37 174.67"/></svg>