<svg id="Layer_1" data-name="Layer 1" xmlns="http://www.w3.org/2000/svg" viewBox="0 0 700 200"><defs><style>.cls-1{fill:none;}.cls-2{fill:aqua;}.cls-3{fill:#f0f;}.cls-4{fill:#fff;}</style></defs><polygon class="cls-1" points="111.42 69.38 116.32 71.78 120.98 69.3 116.09 67 111.42 69.38"/><polygon class="cls-2" points="19.31 27.24 12.59 23.65 21.53 49.88 107.92 109.37 107.86 102.3 26.14 49.9 19.31 27.24"/><polygon class="cls-2" points="116.09 67 95.26 57.19 186.54 17.38 183.1 16.67 85.03 56.43 111.42 69.38 116.09 67"/><polygon class="cls-2" points="136.5 67.87 137.05 62.98 123.59 70.52 120.98 69.3 116.32 71.78 121.58 74.36 118.94 109.4 111.29 104.5 110.57 191.19 115.18 186.34 125.52 74.28 136.5 67.87"/><polygon class="cls-3" points="116.32 71.78 111.42 69.38 109.6 70.31 83.57 57.02 85.03 56.43 18.24 23.68 19.31 27.24 107.63 74.33 107.86 102.3 111.29 104.5 111.55 74.33 116.32 71.78"/><polygon class="cls-4" points="19.31 27.24 26.14 49.9 107.86 102.3 107.63 74.33 19.31 27.24"/><polygon class="cls-4" points="109.6 70.31 111.42 69.38 85.03 56.43 83.57 57.02 109.6 70.31"/><polygon class="cls-4" points="121.58 74.36 116.32 71.78 111.55 74.33 111.29 104.5 118.94 109.4 121.58 74.36"/><polygon class="cls-3" points="116.09 67 120.98 69.3 137.31 60.59 137.05 62.98 211.28 21.38 188.03 16.73 186.54 17.38 205.53 21.3 116.09 67"/><polygon class="cls-4" points="116.09 67 205.53 21.3 186.54 17.38 95.26 57.19 116.09 67"/><polygon class="cls-4" points="120.98 69.3 123.59 70.52 137.05 62.98 137.31 60.59 120.98 69.3"/><polygon class="cls-3" points="124.3 176.76 115.18 186.34 114.73 191.17 127.87 176.75 149.04 60.55 136.5 67.87 124.3 176.76"/><polygon class="cls-4" points="136.5 67.87 125.52 74.28 115.18 186.34 124.3 176.76 136.5 67.87"/><path class="cls-1" d="M355.84,82.69V58.83c0-4.73-.68-8-2.07-10.23a10.65,10.65,0,0,0-5-1H340V96.21h9.09C353.66,95.11,355.84,91.17,355.84,82.69Z"/><path class="cls-1" d="M435.71,55.91a20.93,20.93,0,0,0-1.17-7.34,8.58,8.58,0,0,0-7.21-3.75c-5.16,0-9.63,3.78-9.63,13.06v83.53c0,9.46,4.47,13.07,9.63,13.07a8.61,8.61,0,0,0,7.81-4.64,24,24,0,0,0,.57-5.41Z"/><polygon class="cls-1" points="647.34 62.23 640.9 121.3 654.21 121.3 647.34 62.23"/><polygon class="cls-2" points="290.13 44.98 273.53 44.98 273.53 165.48 277.45 165.48 277.45 47.57 293.77 47.57 293.77 33.82 290.13 33.82 290.13 44.98"/><rect class="cls-2" x="247.02" y="44.98" width="12.17" height="2.58"/><rect class="cls-2" x="337.14" y="110.92" width="2.87" height="54.56"/><path class="cls-2" d="M340,96.21V47.57h8.77a10.65,10.65,0,0,1,5,1c-1.6-2.55-4.15-3.62-7.72-3.62h-8.91V96.53h8.91a13.08,13.08,0,0,0,3.05-.33H340Z"/><path class="cls-2" d="M359.78,107.38c9.62-3.26,12.71-11.34,12.71-25.61V61.32c0-11.13-2.3-18.1-6.6-22.24,2.8,4.52,4.28,11.11,4.28,20.48V81.23c0,15.12-3.14,23.68-12.93,27.14l15.24,57.11h3.45Z"/><path class="cls-2" d="M427.33,154.48c-5.16,0-9.63-3.61-9.63-13.07V57.88c0-9.28,4.47-13.06,9.63-13.06a8.58,8.58,0,0,1,7.21,3.75c-1.71-4.53-5.08-6.5-8.62-6.5-5.24,0-9.78,4-9.78,13.84v88.52c0,10,4.54,13.85,9.78,13.85,4,0,7.82-2.43,9.22-8.44A8.61,8.61,0,0,1,427.33,154.48Z"/><path class="cls-2" d="M450,57.19v86a50.11,50.11,0,0,1-1,10.64,40.22,40.22,0,0,0,2-13.59V59.08c0-6.76-1-12-2.83-16.08A48.15,48.15,0,0,1,450,57.19Z"/><rect class="cls-2" x="501.94" y="33.82" width="0.15" height="131.66"/><rect class="cls-2" x="539.73" y="33.82" width="0.48" height="131.66"/><polygon class="cls-2" points="592.33 165.48 589.09 156.22 592.2 165.48 592.33 165.48"/><polygon class="cls-2" points="575 33.82 574.97 33.82 554.54 97.93 554.54 101.13 567.2 135.49 554.72 100.17 575 33.82"/><polygon class="cls-2" points="647.34 62.23 654.21 121.3 640.9 121.3 640.7 123.12 656.61 123.12 648.57 50.99 647.34 62.23"/><polygon class="cls-2" points="656.23 137.15 659.53 165.48 661.52 165.48 658.35 137.15 656.23 137.15"/><polygon class="cls-2" points="636.85 33.82 619.14 165.48 621.53 165.48 638.52 33.82 636.85 33.82"/><polygon class="cls-3" points="290.13 33.82 290.13 30.41 242.59 30.41 242.59 44.98 247.02 44.98 247.02 33.82 290.13 33.82"/><polygon class="cls-3" points="263.35 47.57 259.2 47.57 259.2 169.93 273.53 169.93 273.53 165.48 263.35 165.48 263.35 47.57"/><polygon class="cls-4" points="290.13 44.98 290.13 33.82 247.02 33.82 247.02 44.98 259.2 44.98 259.2 47.57 263.35 47.57 263.35 165.48 273.53 165.48 273.53 44.98 290.13 44.98"/><path class="cls-3" d="M325.92,33.82h23c7.21,0,12.93,1.4,16.94,5.26-4-6.45-10.71-8.67-19.66-8.67H322.81V169.93h14.33v-4.45H325.92Z"/><path class="cls-3" d="M358.4,83.15V60.63c0-6.71-1.51-10.4-4.63-12,1.39,2.2,2.07,5.5,2.07,10.23V82.69c0,8.48-2.18,12.42-6.74,13.51C355.4,96.08,358.4,92.61,358.4,83.15Z"/><polygon class="cls-3" points="346.54 109.79 340.01 109.79 340.01 110.92 343.78 110.92 359.34 169.93 373.67 169.93 372.48 165.48 361.84 165.48 346.54 109.79"/><path class="cls-4" d="M370.17,81.23V59.56c0-9.37-1.48-16-4.28-20.48-4-3.86-9.73-5.26-16.94-5.26h-23V165.48h11.22V110.92H340v-1.13h6.53l15.3,55.69h10.64l-15.24-57.11C367,104.91,370.17,96.35,370.17,81.23Zm-24.12,15.3h-8.91V45h8.91c3.57,0,6.12,1.07,7.72,3.62,3.12,1.63,4.63,5.32,4.63,12V83.15c0,9.46-3,12.93-9.3,13A13.08,13.08,0,0,1,346.05,96.53Z"/><path class="cls-3" d="M435.71,55.91v88.52a24,24,0,0,1-.57,5.41,17.39,17.39,0,0,0,1.81-8.43V57.88c0-4.16-.94-7.21-2.41-9.31A20.93,20.93,0,0,1,435.71,55.91Z"/><path class="cls-3" d="M427.33,167.71c-13.24,0-23.72-6.7-23.72-27.5V59.08c0-20.79,10.31-27.5,24.23-27.5,9.36,0,16.62,3.12,20.37,11.42-3.39-11-11.28-14.95-21.76-14.95-14.16,0-24.65,7.1-24.65,29.14v86c0,22,10.66,29.14,24.12,29.14,10.87,0,20.1-4.64,23.09-18.5C445.32,164.13,437,167.71,427.33,167.71Z"/><path class="cls-4" d="M450,57.19A48.15,48.15,0,0,0,448.21,43c-3.75-8.3-11-11.42-20.37-11.42-13.92,0-24.23,6.71-24.23,27.5v81.13c0,20.8,10.48,27.5,23.72,27.5,9.65,0,18-3.58,21.68-13.91a50.11,50.11,0,0,0,1-10.64ZM437,141.41a17.39,17.39,0,0,1-1.81,8.43c-1.4,6-5.19,8.44-9.22,8.44-5.24,0-9.78-3.83-9.78-13.85V55.91c0-9.83,4.54-13.84,9.78-13.84,3.54,0,6.91,2,8.62,6.5,1.47,2.1,2.41,5.15,2.41,9.31Z"/><polygon class="cls-3" points="488 33.82 501.94 33.82 501.94 30.41 487.61 30.41 487.61 169.93 501.94 169.93 501.94 165.48 488 165.48 488 33.82"/><rect class="cls-4" x="488" y="33.82" width="13.94" height="131.66"/><polygon class="cls-3" points="578.23 165.48 567.2 135.49 579.36 169.93 593.69 169.93 592.2 165.48 578.23 165.48"/><polygon class="cls-3" points="554.54 97.93 554.54 30.41 540.21 30.41 540.21 33.82 553.83 33.82 553.83 165.48 540.21 165.48 540.21 169.93 554.54 169.93 554.54 101.13 554 99.65 554.54 97.93"/><polygon class="cls-3" points="569.12 99.13 589.09 156.22 570.1 99.63 590.37 30.41 576.04 30.41 575 33.82 589.06 33.82 569.12 99.13"/><rect class="cls-4" x="540.21" y="33.82" width="13.61" height="131.66"/><polygon class="cls-4" points="592.2 165.48 589.09 156.22 569.12 99.13 589.06 33.82 575 33.82 554.72 100.17 567.2 135.49 578.23 165.48 592.2 165.48"/><polygon class="cls-3" points="554 99.65 554.54 101.13 554.54 97.93 554 99.65"/><polygon class="cls-3" points="676.36 169.93 658.18 30.41 638.96 30.41 638.52 33.82 655.75 33.82 673.63 165.48 661.52 165.48 662.02 169.93 676.36 169.93"/><polygon class="cls-3" points="636.85 134.54 633.24 165.48 621.53 165.48 620.95 169.93 635.28 169.93 638.96 137.15 656.23 137.15 655.92 134.54 636.85 134.54"/><polygon class="cls-3" points="646.3 53.24 638.56 121.3 640.9 121.3 647.34 62.23 646.3 53.24"/><path class="cls-4" d="M655.75,33.82H638.52l-17,131.66h11.71l3.61-30.94h19.07l.31,2.61h2.12l3.18,28.33h12.1Zm-15,89.3.2-1.82h-2.34l7.74-68.06,1,9L648.57,51l8,72.12Z"/></svg>